# Blender v2.79 (sub 0) OBJ File: ''
# www.blender.org
o body
v -0.539440 2.965804 -0.165867
v -0.539440 2.745964 -0.269163
v -0.539440 2.745964 -0.165867
v 0.331967 2.965804 -0.269163
v 0.533060 2.745964 -0.269163
v 0.331967 2.745964 -0.269163
v 0.533060 2.965804 -0.165867
v 0.533060 2.745964 0.290837
v 0.533060 2.745964 -0.165867
v -0.338346 2.965804 0.290837
v -0.539440 2.745964 0.290837
v -0.338346 2.745964 0.290837
v 0.533060 1.483249 -0.165867
v 0.331967 1.483249 0.290837
v 0.331967 1.483249 -0.165867
v -0.338346 2.965804 -0.165867
v -0.003190 2.965804 -0.165867
v 0.264935 2.965804 0.290837
v 0.264935 2.965804 -0.165867
v -0.003190 1.483249 -0.165867
v -0.271315 1.483249 0.290837
v -0.271315 1.483249 -0.165867
v 0.264935 2.745964 0.290837
v -0.003190 2.965804 0.290837
v -0.003190 2.555912 0.290837
v -0.271315 2.965804 -0.269163
v -0.003190 2.745964 -0.269163
v -0.271315 2.745964 -0.269163
v -0.338346 2.965804 -0.269163
v -0.338346 2.745964 -0.269163
v -0.338346 1.483249 0.290837
v -0.338346 1.483249 -0.165867
v -0.271315 2.965804 -0.165867
v -0.271315 2.745964 0.290837
v 0.331967 2.965804 -0.165867
v 0.331967 2.990804 -0.244163
v 0.331967 2.990804 -0.140867
v -0.338346 2.526124 0.290837
v -0.304830 2.480092 0.315837
v -0.338346 2.551124 0.315837
v 0.264935 1.483249 -0.165867
v -0.003190 1.483249 0.290837
v -0.003190 2.965804 -0.269163
v 0.264935 2.745964 -0.269163
v -0.003190 2.526124 -0.269163
v 0.264935 2.395764 -0.269163
v -0.003190 2.395764 -0.269163
v -0.338346 2.990804 -0.244163
v -0.271315 2.965804 0.290837
v -0.271315 2.990804 -0.140867
v -0.271315 2.976880 0.291142
v -0.338346 2.526124 -0.269163
v -0.271315 2.395764 -0.269163
v -0.338346 2.395764 -0.269163
v -0.271315 2.526124 -0.269163
v -0.271315 2.526124 0.290837
v -0.003190 2.171020 0.315837
v -0.003190 2.146020 0.290837
v -0.539440 2.395764 0.290837
v -0.304830 2.455091 0.290837
v 0.533060 2.526124 -0.165867
v 0.533060 2.395764 0.290837
v 0.533060 2.395764 -0.165867
v 0.331967 2.526124 -0.269163
v 0.533060 2.395764 -0.269163
v 0.331967 2.395764 -0.269163
v -0.539440 2.526124 -0.165867
v -0.539440 2.395764 -0.269163
v -0.539440 2.395764 -0.165867
v -0.539440 1.939507 -0.269163
v -0.539440 1.939507 -0.165867
v 0.533060 1.939507 -0.269163
v 0.331967 1.939507 -0.269163
v 0.533060 1.939507 0.290837
v 0.533060 1.939507 -0.165867
v -0.321588 1.939170 0.290837
v -0.539440 1.939507 0.290837
v 0.264935 1.934507 0.290837
v -0.003190 2.063174 0.290837
v -0.003190 1.933211 0.290837
v -0.003190 1.939507 -0.269163
v -0.271315 1.939507 -0.269163
v -0.338346 1.939507 -0.269163
v -0.271315 1.939507 0.290837
v 0.315209 1.934170 0.290837
v 0.264935 2.395764 0.290837
v 0.264935 1.939507 -0.269163
v -0.271315 2.395764 0.290837
v -0.003190 2.088174 0.315837
v -0.539440 2.526124 -0.269163
v -0.539440 1.483249 0.290837
v -0.539440 1.483249 -0.165867
v -0.539440 2.965804 -0.269163
v 0.264935 2.990804 -0.140867
v 0.264935 2.965804 -0.269163
v 0.264935 2.526124 -0.269163
v 0.331967 2.526124 0.290837
v 0.298451 2.455091 0.290837
v 0.533060 2.965804 0.290837
v 0.331967 2.745964 0.290837
v 0.264935 1.483249 0.290837
v 0.331967 1.483249 -0.269163
v 0.264935 1.483249 -0.269163
v 0.533060 2.965804 -0.269163
v -0.338346 1.483249 -0.269163
v -0.539440 1.483249 -0.269163
v -0.539440 2.526124 0.290837
v 0.533060 2.526124 -0.269163
v -0.003190 1.483249 -0.269163
v -0.338346 2.770964 0.315837
v 0.331967 2.965804 0.290837
v 0.331967 2.770964 0.315837
v -0.271315 1.483249 -0.269163
v -0.338346 2.990804 -0.140867
v 0.533060 1.483249 -0.269163
v -0.539440 2.965804 0.290837
v 0.331967 2.976880 0.291142
v 0.264935 2.770964 0.315837
v 0.298451 2.480092 0.315837
v 0.264935 2.551124 0.315837
v 0.264935 2.420764 0.315837
v -0.271315 2.420764 0.315837
v -0.271315 2.551124 0.315837
v -0.271315 2.770964 0.315837
v -0.271315 2.990804 -0.244163
v 0.264935 2.990804 -0.244163
v -0.003190 2.990804 -0.140867
v -0.003190 2.990804 -0.244163
v 0.264935 2.526124 0.290837
v 0.264935 2.976880 0.291142
v 0.331967 2.551124 0.315837
v -0.338346 2.976880 0.291142
v 0.533060 2.526124 0.290837
v 0.530379 1.939507 0.289327
v 0.530379 1.939507 -0.165094
v -0.003190 1.708230 0.290837
v -0.269974 1.711378 0.289327
v -0.271315 1.711378 0.290837
v -0.536758 1.939507 0.289327
v -0.319996 1.939170 0.289327
v -0.271315 1.711378 -0.269163
v -0.336670 1.711378 -0.267873
v -0.269974 1.711378 -0.267873
v 0.263595 1.934507 0.289327
v -0.003190 1.711378 -0.269163
v -0.003190 1.711378 -0.267873
v -0.269974 1.939507 -0.267873
v 0.263595 1.708878 0.289327
v -0.003190 1.708230 0.289327
v -0.336670 1.939507 -0.267873
v -0.329967 1.711210 0.290837
v -0.536758 1.711378 0.289327
v -0.539440 1.711378 0.290837
v -0.269974 1.939507 0.289327
v -0.003190 1.933211 0.289327
v 0.533060 1.711378 -0.165867
v 0.530379 1.711378 0.289327
v 0.533060 1.711378 0.290837
v 0.313617 1.934170 0.289327
v -0.539440 1.711378 -0.165867
v -0.536758 1.711378 -0.165094
v 0.331967 1.711378 -0.269163
v 0.530379 1.711378 -0.267873
v 0.533060 1.711378 -0.269163
v 0.263595 1.939507 -0.267873
v -0.003190 1.939507 -0.267873
v -0.552846 1.597313 -0.169732
v -0.539440 1.711378 -0.269163
v -0.552846 1.597313 -0.275611
v 0.340346 1.597313 -0.275611
v 0.546467 1.597313 -0.275611
v 0.546467 1.597313 -0.169732
v 0.546467 1.597313 0.298389
v -0.342431 1.597229 0.298389
v -0.552846 1.597313 0.298389
v 0.264935 1.708878 0.290837
v -0.003190 1.595740 0.298389
v 0.271639 1.596063 0.298389
v -0.003190 1.597313 -0.275611
v -0.278018 1.597313 -0.275611
v -0.338346 1.711378 -0.269163
v -0.346725 1.597313 -0.275611
v -0.278018 1.597313 0.298389
v 0.323588 1.708710 0.290837
v 0.336051 1.595979 0.298389
v 0.264935 1.711378 -0.269163
v 0.271639 1.597313 -0.275611
v -0.536758 1.825442 -0.165094
v -0.536758 1.825442 0.289327
v 0.530379 1.939507 -0.267873
v 0.530379 1.825442 -0.165094
v 0.530379 1.825442 -0.267873
v 0.330291 1.825442 -0.267873
v 0.263595 1.825442 -0.267873
v 0.317785 1.821440 0.289327
v 0.530379 1.825442 0.289327
v -0.269974 1.825442 0.289327
v -0.324165 1.825190 0.289327
v -0.536758 1.939507 -0.267873
v -0.336670 1.825442 -0.267873
v -0.536758 1.825442 -0.267873
v -0.003190 1.825442 -0.267873
v 0.263595 1.821692 0.289327
v -0.003190 1.820721 0.289327
v -0.269974 1.825442 -0.267873
v 0.330291 1.939507 -0.267873
v -0.536758 1.939507 -0.165094
v 0.321954 1.708710 0.289327
v 0.263595 1.711378 -0.267873
v -0.536758 1.711378 -0.267873
v -0.328333 1.711210 0.289327
v 0.330291 1.711378 -0.267873
v 0.530379 1.711378 -0.165094
v 0.533060 1.483249 0.290837
v -0.536758 1.768410 -0.267873
v -0.536758 1.768410 -0.165094
v 0.530379 1.768410 -0.267873
v 0.330291 1.768410 -0.267873
v 0.530379 1.768410 0.289327
v 0.530379 1.768410 -0.165094
v -0.326249 1.768200 0.289327
v -0.536758 1.768410 0.289327
v 0.263595 1.765285 0.289327
v -0.003190 1.764475 0.289327
v -0.003190 1.768410 -0.267873
v -0.269974 1.768410 -0.267873
v -0.336670 1.768410 -0.267873
v -0.269974 1.768410 0.289327
v 0.319870 1.765075 0.289327
v 0.263595 1.768410 -0.267873
vt 0.973664 0.803182
vt 0.880380 0.847013
vt 0.880380 0.803182
vt 0.918761 0.859660
vt 0.848113 0.924283
vt 0.848113 0.859660
vt 0.975101 0.658346
vt 0.876372 0.863449
vt 0.876372 0.658346
vt 0.611611 0.916797
vt 0.539790 0.838280
vt 0.611611 0.838280
vt 0.970277 0.653953
vt 0.888098 0.840591
vt 0.888098 0.653953
vt 0.734199 0.628942
vt 0.583095 0.972113
vt 0.583095 0.628942
vt 0.236690 0.789562
vt 0.168633 0.747323
vt 0.236690 0.747323
vt 0.751132 0.653953
vt 0.641559 0.840591
vt 0.641559 0.653953
vt 0.244147 0.550216
vt 0.453611 0.756537
vt 0.244147 0.756537
vt 0.918761 0.665788
vt 0.848113 0.751953
vt 0.848113 0.665788
vt 0.918761 0.644247
vt 0.848113 0.644247
vt 0.614166 0.840591
vt 0.614166 0.653953
vt 0.236690 0.831800
vt 0.168633 0.789562
vt 0.244147 0.962858
vt 0.742451 0.080923
vt 0.765007 0.081599
vt 0.735350 0.091400
vt 0.772904 0.454150
vt 0.757769 0.441707
vt 0.780865 0.446645
vt 0.860705 0.653953
vt 0.751132 0.840591
vt 0.918761 0.751953
vt 0.848113 0.838118
vt 0.777465 0.751953
vt 0.735572 0.838118
vt 0.735572 0.751953
vt 0.926411 0.253919
vt 0.922796 0.231935
vt 0.930310 0.225144
vt 0.900731 0.402412
vt 0.885742 0.258825
vt 0.904311 0.402074
vt 0.777465 0.644247
vt 0.735572 0.665788
vt 0.735572 0.644247
vt 0.777465 0.665788
vt 0.770693 0.418431
vt 0.627012 0.384916
vt 0.635310 0.376206
vt 0.611611 0.759763
vt 0.539789 0.713204
vt 0.623582 0.734393
vt 0.777643 0.658346
vt 0.719099 0.863449
vt 0.719099 0.658346
vt 0.777465 0.859660
vt 0.735572 0.924283
vt 0.735572 0.859660
vt 0.787096 0.803182
vt 0.731781 0.847013
vt 0.731781 0.803182
vt 0.538179 0.847013
vt 0.538179 0.803182
vt 0.588949 0.924283
vt 0.588949 0.859659
vt 0.514196 0.863449
vt 0.514196 0.658346
vt 0.617596 0.550130
vt 0.539789 0.550250
vt 0.827076 0.548464
vt 0.731314 0.594418
vt 0.731313 0.548001
vt 0.588949 0.751953
vt 0.588949 0.665788
vt 0.588949 0.644247
vt 0.635551 0.550250
vt 0.845031 0.548343
vt 0.827076 0.713204
vt 0.588949 0.838118
vt 0.735573 0.579623
vt 0.588949 0.579623
vt 0.635552 0.713204
vt 0.564400 0.285580
vt 0.611779 0.400828
vt 0.604673 0.408250
vt 0.777465 0.579623
vt 0.531986 0.840591
vt 0.531986 0.653953
vt 0.918761 0.579623
vt 0.848113 0.579623
vt 0.594750 0.117997
vt 0.742341 0.118015
vt 0.744042 0.128707
vt 0.785488 0.088816
vt 0.770844 0.073380
vt 0.922838 0.713204
vt 0.922837 0.550250
vt 0.777465 0.838118
vt 0.851017 0.759762
vt 0.839046 0.734393
vt 0.885403 0.628942
vt 0.734300 0.972113
vt 0.734300 0.628942
vt 0.922838 0.916796
vt 0.851017 0.838279
vt 0.922838 0.838279
vt 0.860705 0.840591
vt 0.918761 0.838118
vt 0.888098 0.611740
vt 0.860705 0.611740
vt 0.885403 0.551324
vt 0.734300 0.551324
vt 0.814881 0.181814
vt 0.875106 0.258170
vt 0.614166 0.611740
vt 0.531986 0.611740
vt 0.719099 0.611956
vt 0.514196 0.611956
vt 0.731781 0.609390
vt 0.538179 0.609390
vt 0.787096 0.609390
vt 0.777643 0.611956
vt 0.751132 0.611740
vt 0.846507 0.454150
vt 0.855603 0.444834
vt 0.550220 0.097839
vt 0.559532 0.165073
vt 0.550980 0.173798
vt 0.641559 0.611740
vt 0.928088 0.414324
vt 0.917104 0.261749
vt 0.734199 0.551324
vt 0.583095 0.551324
vt 0.970277 0.611740
vt 0.975101 0.611956
vt 0.876372 0.611956
vt 0.973664 0.609390
vt 0.880380 0.609390
vt 0.578970 0.096773
vt 0.580140 0.168110
vt 0.565006 0.257449
vt 0.579006 0.238183
vt 0.571253 0.276527
vt 0.738080 0.436067
vt 0.776989 0.426555
vt 0.849796 0.420176
vt 0.907827 0.220836
vt 0.777043 0.097310
vt 0.823504 0.172346
vt 0.843992 0.152153
vt 0.915525 0.212443
vt 0.852152 0.143647
vt 0.900744 0.402495
vt 0.841600 0.414052
vt 0.729204 0.443341
vt 0.587232 0.243808
vt 0.552491 0.243167
vt 0.559049 0.265844
vt 0.586531 0.175574
vt 0.578803 0.092773
vt 0.749382 0.448090
vt 0.782151 0.310925
vt 0.756926 0.310925
vt 0.782151 0.310925
vt 0.559466 0.235325
vt 0.905190 0.416522
vt 0.879966 0.416522
vt 0.905190 0.416522
vt 0.922838 0.759762
vt 0.034692 0.962858
vt 0.034692 0.756537
vt 0.034692 0.550216
vt 0.539789 0.759763
vt 0.777643 0.863449
vt 0.777465 0.924283
vt 0.787096 0.847013
vt 0.767072 0.164523
vt 0.767072 0.080045
vt 0.767072 0.164523
vt 0.677716 0.264576
vt 0.677716 0.306814
vt 0.677716 0.306814
vt 0.792296 0.396836
vt 0.792296 0.417955
vt 0.792296 0.396836
vt 0.874276 0.206761
vt 0.874276 0.227881
vt 0.874276 0.206761
vt 0.684022 0.264576
vt 0.684022 0.222337
vt 0.684022 0.222337
vt 0.874276 0.164523
vt 0.874276 0.164523
vt 0.867970 0.164523
vt 0.867970 0.206761
vt 0.867970 0.206761
vt 0.677716 0.222337
vt 0.677716 0.264576
vt 0.867970 0.227881
vt 0.867970 0.227881
vt 0.785990 0.396836
vt 0.785990 0.417955
vt 0.785990 0.417955
vt 0.684022 0.306814
vt 0.684022 0.264576
vt 0.773378 0.164523
vt 0.773378 0.080045
vt 0.773378 0.080045
vt 0.792296 0.291239
vt 0.792296 0.270120
vt 0.792296 0.270120
vt 0.773378 0.333478
vt 0.773378 0.417955
vt 0.773378 0.333478
vt 0.874276 0.101165
vt 0.874276 0.080045
vt 0.874276 0.080045
vt 0.867970 0.122284
vt 0.867970 0.164523
vt 0.730716 0.600044
vt 0.634399 0.516658
vt 0.730716 0.511250
vt 0.903605 0.714236
vt 0.987831 0.664304
vt 0.993691 0.714236
vt 0.747433 0.606489
vt 0.842735 0.988666
vt 0.747433 0.994933
vt 0.612387 0.674459
vt 0.528211 0.723338
vt 0.522484 0.674495
vt 0.871893 0.722272
vt 0.757332 0.673825
vt 0.874757 0.673962
vt 0.636275 0.664304
vt 0.753460 0.714236
vt 0.633345 0.714236
vt 0.606979 0.664304
vt 0.603317 0.714236
vt 0.642772 0.723338
vt 0.639908 0.674495
vt 0.896953 0.722200
vt 0.902278 0.673926
vt 0.870646 0.664304
vt 0.873576 0.714236
vt 0.519089 0.664304
vt 0.513230 0.714236
vt 0.617712 0.723266
vt 0.986453 0.723338
vt 0.992182 0.674495
vt 0.899943 0.664304
vt 0.842735 0.523981
vt 0.747433 0.518631
vt 0.634399 0.986292
vt 0.730716 0.992625
vt 0.712935 0.452406
vt 0.716088 0.367929
vt 0.716088 0.452406
vt 0.712935 0.283451
vt 0.716088 0.198974
vt 0.716088 0.283451
vt 0.813833 0.156735
vt 0.816986 0.135615
vt 0.816986 0.156735
vt 0.989809 0.199089
vt 0.897181 0.147647
vt 0.989809 0.149390
vt 0.641094 0.149390
vt 0.619300 0.198942
vt 0.617483 0.149281
vt 0.813833 0.283451
vt 0.816986 0.262332
vt 0.816986 0.283451
vt 0.813833 0.198974
vt 0.816986 0.198974
vt 0.895365 0.196763
vt 0.873571 0.147756
vt 0.757332 0.196345
vt 0.757332 0.147333
vt 0.813833 0.262332
vt 0.816986 0.241212
vt 0.813833 0.241212
vt 0.524857 0.199088
vt 0.524857 0.149390
vt 0.712935 0.198974
vt 0.716088 0.114496
vt 0.813833 0.135615
vt 0.816986 0.114496
vt 0.712935 0.367929
vt 0.716088 0.283451
vt 0.785990 0.291239
vt 0.785990 0.270120
vt 0.785990 0.291239
vt 0.767072 0.333478
vt 0.767072 0.417955
vt 0.767072 0.417955
vt 0.867970 0.101165
vt 0.867970 0.080045
vt 0.867970 0.101165
vt 0.874276 0.122284
vt 0.874276 0.122284
vt 0.767072 0.249000
vt 0.767072 0.249000
vt 0.767072 0.249000
vt 0.767072 0.333478
vt 0.874276 0.227881
vt 0.874276 0.249000
vt 0.867970 0.122284
vt 0.785990 0.375716
vt 0.785990 0.396836
vt 0.792296 0.249000
vt 0.792296 0.249000
vt 0.785990 0.270120
vt 0.785990 0.249000
vt 0.792296 0.375716
vt 0.792296 0.375716
vt 0.874276 0.101165
vt 0.867970 0.249000
vt 0.867970 0.249000
vt 0.773378 0.249000
vt 0.773378 0.249000
vt 0.773378 0.249000
vt 0.773378 0.164523
vt 0.827033 0.986292
vt 0.827033 0.603285
vt 0.652132 0.523981
vt 0.652132 0.609696
vt 0.899943 0.764168
vt 0.870646 0.764168
vt 0.986453 0.625653
vt 0.900533 0.625653
vt 0.614132 0.625653
vt 0.642772 0.625653
vt 0.519089 0.764168
vt 0.606979 0.764168
vt 0.753460 0.764168
vt 0.871893 0.625653
vt 0.757332 0.625653
vt 0.636275 0.764168
vt 0.528212 0.625653
vt 0.652132 0.988666
vt 0.987831 0.764168
vt 0.827033 0.516658
vt 0.717664 0.283451
vt 0.717664 0.367929
vt 0.818562 0.114496
vt 0.818562 0.135615
vt 0.717664 0.114496
vt 0.717664 0.198974
vt 0.616575 0.124450
vt 0.524857 0.124541
vt 0.873571 0.123180
vt 0.757332 0.122827
vt 0.818562 0.198974
vt 0.818562 0.241212
vt 0.818562 0.262332
vt 0.641095 0.124542
vt 0.898090 0.123088
vt 0.818562 0.156735
vt 0.818562 0.283451
vt 0.989809 0.124541
vt 0.717664 0.283451
vt 0.717664 0.452406
vt 0.719241 0.367929
vt 0.719241 0.452406
vt 0.719241 0.198974
vt 0.719241 0.283451
vt 0.820139 0.135615
vt 0.820139 0.156735
vt 0.898998 0.098530
vt 0.989808 0.099693
vt 0.641095 0.099693
vt 0.615667 0.099619
vt 0.820139 0.262332
vt 0.820139 0.283451
vt 0.820139 0.198974
vt 0.873571 0.098603
vt 0.757332 0.098321
vt 0.820139 0.241212
vt 0.524857 0.099693
vt 0.719241 0.114496
vt 0.820139 0.114496
vt 0.719241 0.283451
vt 0.973664 0.847013
vt 0.918761 0.924283
vt 0.975101 0.863449
vt 0.539790 0.916797
vt 0.970277 0.840591
vt 0.734199 0.972113
vt 0.453611 0.550216
vt 0.168633 0.831800
vt 0.453611 0.962858
vt 0.594904 0.114379
vt 0.885403 0.972113
vt 0.851017 0.916796
vt 0.905190 0.289806
vt 0.905190 0.289806
vt 0.879966 0.289806
vt 0.924174 0.414481
vt 0.782151 0.395403
vt 0.782151 0.395403
vt 0.756926 0.395403
vt 0.927457 0.453184
vt 0.767072 0.080045
vt 0.792296 0.417955
vt 0.677716 0.222337
vt 0.684022 0.306814
vt 0.792296 0.291239
vt 0.773378 0.417955
vt 0.634399 0.603285
vt 0.842735 0.609696
vt 0.757332 0.721996
vt 0.753460 0.664304
vt 0.641094 0.199089
vt 0.873571 0.196910
vt 0.712935 0.114496
vt 0.813833 0.114496
vt 0.712935 0.283451
vt 0.867970 0.080045
vt 0.767072 0.249000
vt 0.874276 0.249000
vt 0.785990 0.375716
vt 0.785990 0.249000
vt 0.773378 0.249000
vn -1.0000 -0.0000 0.0000
vn 0.0000 0.0000 -1.0000
vn 1.0000 0.0000 0.0000
vn 0.0000 -0.0000 1.0000
vn 0.0000 -1.0000 0.0000
vn 0.0000 1.0000 0.0000
vn -0.8318 -0.3925 0.3925
vn 0.7080 0.4994 -0.4994
vn 0.6594 -0.5316 0.5316
vn 0.0000 0.7071 -0.7071
vn 0.0000 -0.7071 0.7071
vn 0.0000 0.1191 0.9929
vn 0.0000 0.9995 0.0322
vn -0.6594 -0.5316 0.5316
vn -0.7080 0.4994 -0.4994
vn 0.8318 -0.3925 0.3925
vn 0.7813 -0.4414 0.4414
vn -0.7813 -0.4414 0.4414
vn 0.0117 0.9999 0.0074
vn 0.0118 0.9999 0.0030
vn 0.0117 0.9999 0.0104
vn 0.0054 -1.0000 0.0038
vn -0.0006 -1.0000 -0.0003
vn 0.0014 -1.0000 0.0004
vn 0.0000 1.0000 0.0002
vn 0.0049 -1.0000 -0.0031
vn 0.0049 -1.0000 -0.0013
vn 0.0048 -1.0000 -0.0043
vn -0.0024 1.0000 0.0013
vn 0.0001 1.0000 -0.0020
vn -0.0024 1.0000 0.0000
vn -0.0026 1.0000 -0.0011
vn 0.0002 1.0000 -0.0001
vn 0.0005 1.0000 0.0012
vn -0.0236 -0.9997 0.0000
vn -0.0067 -1.0000 0.0068
vn -0.0067 -1.0000 0.0062
vn -0.0067 -1.0000 0.0071
vn 0.0000 1.0000 0.0001
vn -0.9932 0.1167 0.0000
vn 0.0000 0.0564 -0.9984
vn 0.9932 0.1167 0.0000
vn -0.0000 0.0661 0.9978
vn 0.0000 0.0668 0.9978
vn 0.0001 0.0664 0.9978
vn 0.0006 0.0667 0.9978
vn 0.0001 0.0661 0.9978
vn -0.0003 0.0668 0.9978
vn -0.0005 0.0662 0.9978
vn -0.0001 0.0661 0.9978
vn -0.0006 0.0662 0.9978
vn -0.0004 0.0660 0.9978
vn -0.0018 1.0000 -0.0001
vn 0.0029 1.0000 -0.0031
vn -0.0012 -1.0000 -0.0024
vn -0.0029 1.0000 -0.0034
vn -0.0007 1.0000 0.0000
vn 0.0245 -0.9988 -0.0434
vn -0.0127 0.9997 0.0200
vn -0.0128 0.9998 0.0164
vn -0.0128 0.9998 0.0138
vn 0.0067 -1.0000 0.0068
vn 0.0067 -1.0000 0.0059
vn -0.9932 -0.1167 0.0000
vn 0.9932 -0.1167 0.0000
vn 0.0000 -0.0564 -0.9984
vn 0.0003 -0.0663 0.9978
vn 0.0002 -0.0664 0.9978
vn -0.0000 -0.0668 0.9978
vn -0.0002 -0.0661 0.9978
vn 0.0000 -0.0661 0.9978
vn -0.0001 -0.0662 0.9978
vn 0.0000 -0.0670 0.9978
vn 0.0118 0.9999 0.0000
vn 0.0049 -1.0000 0.0000
vn -0.0235 -0.9995 -0.0206
vn -0.0067 -1.0000 0.0059
vn 0.0003 0.0670 0.9978
vn 0.0030 1.0000 -0.0034
vn -0.0029 1.0000 -0.0028
vn 0.0246 -0.9994 -0.0260
vn -0.0127 0.9997 0.0225
vn 0.0004 -0.0661 0.9978
s 1
f 1/1/1 2/2/1 3/3/1
f 4/4/2 5/5/2 6/6/2
f 7/7/3 8/8/3 9/9/3
f 10/10/4 11/11/4 12/12/4
f 13/13/5 14/14/5 15/15/5
f 1/16/6 10/17/6 16/18/6
f 17/19/6 18/20/6 19/21/6
f 20/22/5 21/23/5 22/24/5
f 23/25/4 24/26/4 25/27/4
f 26/28/2 27/29/2 28/30/2
f 29/31/2 28/30/2 30/32/2
f 22/24/5 31/33/5 32/34/5
f 33/35/6 24/36/6 17/19/6
f 24/26/4 34/37/4 25/27/4
f 35/38/3 36/39/3 37/40/3
f 38/41/7 39/42/7 40/43/7
f 41/44/5 42/45/5 20/22/5
f 43/46/2 44/47/2 27/29/2
f 45/48/2 46/49/2 47/50/2
f 16/51/1 48/52/1 29/53/1
f 49/54/3 50/55/3 51/56/3
f 52/57/2 53/58/2 54/59/2
f 55/60/2 47/50/2 53/58/2
f 56/61/8 57/62/8 58/63/8
f 38/64/4 59/65/4 60/66/4
f 61/67/3 62/68/3 63/69/3
f 64/70/2 65/71/2 66/72/2
f 67/73/1 68/74/1 69/75/1
f 69/75/1 70/76/1 71/77/1
f 66/72/2 72/78/2 73/79/2
f 63/69/3 74/80/3 75/81/3
f 76/82/4 59/65/4 77/83/4
f 78/84/4 79/85/4 80/86/4
f 53/58/2 81/87/2 82/88/2
f 54/59/2 82/88/2 83/89/2
f 79/85/4 84/90/4 80/86/4
f 85/91/4 86/92/4 78/84/4
f 47/50/2 87/93/2 81/87/2
f 68/94/2 83/89/2 70/95/2
f 88/96/4 76/82/4 84/90/4
f 86/97/9 89/98/9 79/99/9
f 90/100/2 54/59/2 68/94/2
f 32/34/5 91/101/5 92/102/5
f 93/103/2 30/32/2 2/104/2
f 18/105/1 94/106/1 19/107/1
f 95/108/10 36/39/10 4/109/10
f 62/110/4 85/91/4 74/111/4
f 46/49/2 73/79/2 87/93/2
f 96/112/2 66/72/2 46/49/2
f 62/110/4 97/113/4 98/114/4
f 35/115/6 99/116/6 7/117/6
f 99/118/4 100/119/4 8/120/4
f 15/15/5 101/121/5 41/44/5
f 95/122/2 6/6/2 44/47/2
f 102/123/5 41/44/5 103/124/5
f 4/125/6 7/117/6 104/126/6
f 17/127/11 50/55/11 33/128/11
f 105/129/5 92/102/5 106/130/5
f 65/131/3 75/81/3 72/132/3
f 59/133/1 71/77/1 77/134/1
f 107/135/1 69/75/1 59/133/1
f 108/136/3 63/69/3 65/131/3
f 103/124/5 20/22/5 109/137/5
f 12/138/1 40/43/1 110/139/1
f 111/140/3 112/141/3 100/142/3
f 113/143/5 32/34/5 105/129/5
f 109/137/5 22/24/5 113/143/5
f 10/144/1 114/145/1 16/51/1
f 93/146/6 16/18/6 29/147/6
f 115/148/5 15/15/5 102/123/5
f 104/149/3 9/9/3 5/150/3
f 116/151/1 3/3/1 11/152/1
f 117/153/12 118/154/12 112/141/12
f 94/106/13 117/153/13 37/40/13
f 119/155/4 120/156/4 121/157/4
f 57/62/4 122/158/4 89/98/4
f 121/157/4 57/62/4 89/98/4
f 123/159/4 39/42/4 122/158/4
f 114/145/13 51/56/13 50/55/13
f 51/56/12 110/139/12 124/160/12
f 48/52/6 50/55/6 125/161/6
f 126/162/6 37/40/6 36/39/6
f 125/161/6 127/163/6 128/164/6
f 128/164/6 94/106/6 126/162/6
f 26/165/10 128/164/10 43/166/10
f 19/107/11 127/163/11 17/127/11
f 43/166/10 126/162/10 95/108/10
f 49/167/3 124/160/3 34/168/3
f 88/169/14 89/98/14 122/158/14
f 129/170/15 57/62/15 120/156/15
f 97/171/16 119/155/16 98/172/16
f 23/173/1 120/156/1 118/154/1
f 29/53/10 125/161/10 26/165/10
f 98/172/17 121/157/17 86/97/17
f 111/174/3 37/40/3 117/153/3
f 60/175/18 122/158/18 39/42/18
f 18/176/1 118/177/1 130/178/1
f 34/168/3 123/159/3 56/61/3
f 124/160/4 40/43/4 123/159/4
f 112/141/4 120/156/4 131/179/4
f 11/152/1 67/73/1 107/135/1
f 5/150/3 61/67/3 108/136/3
f 100/142/3 131/179/3 97/171/3
f 10/180/1 110/181/1 132/182/1
f 44/47/2 64/70/2 96/112/2
f 8/120/4 97/113/4 133/183/4
f 2/104/2 52/57/2 90/100/2
f 27/29/2 96/112/2 45/48/2
f 25/27/4 56/184/4 58/185/4
f 30/32/2 55/60/2 52/57/2
f 28/30/2 45/48/2 55/60/2
f 129/186/4 25/27/4 58/185/4
f 12/12/4 107/187/4 38/64/4
f 9/9/3 133/188/3 61/67/3
f 6/6/2 108/189/2 64/70/2
f 3/3/1 90/190/1 67/73/1
f 75/191/5 134/192/5 135/193/5
f 136/194/19 137/195/20 138/196/21
f 76/197/22 139/198/23 140/199/24
f 141/200/25 142/201/6 143/202/6
f 80/203/26 144/204/27 78/205/28
f 145/206/6 143/202/6 146/207/6
f 81/208/5 147/209/5 82/210/5
f 136/194/29 148/211/30 149/212/31
f 82/210/5 150/213/5 83/214/5
f 151/215/32 152/216/33 153/217/34
f 80/203/35 154/218/35 155/219/35
f 156/220/6 157/221/6 158/222/6
f 78/223/36 159/224/37 85/225/38
f 160/226/6 152/227/33 161/228/6
f 162/229/6 163/230/39 164/231/6
f 81/208/5 165/232/5 166/233/5
f 167/234/40 168/235/40 169/236/40
f 170/237/41 164/238/41 171/239/41
f 172/240/42 158/241/42 173/242/42
f 174/243/43 153/244/43 175/245/43
f 176/246/44 177/247/45 178/248/44
f 141/249/41 179/250/41 180/251/41
f 181/252/41 180/251/41 182/253/41
f 177/247/45 138/254/46 183/255/47
f 184/256/48 178/248/44 185/257/49
f 179/250/41 186/258/41 187/259/41
f 168/260/41 182/253/41 169/261/41
f 183/255/47 151/262/50 174/243/43
f 158/263/51 185/257/49 173/264/52
f 187/259/41 162/265/41 170/237/41
f 164/266/42 172/240/42 171/267/42
f 153/268/40 167/234/40 175/269/40
f 139/270/1 188/271/1 189/272/1
f 190/273/3 191/274/3 192/275/3
f 165/276/2 193/277/2 194/278/2
f 134/279/4 195/280/4 196/281/4
f 197/282/4 140/283/4 198/284/4
f 199/285/2 200/286/2 201/287/2
f 166/288/2 194/278/2 202/289/2
f 159/290/4 203/291/4 195/280/4
f 155/292/4 197/282/4 204/293/4
f 150/294/2 205/295/2 200/286/2
f 147/296/2 202/289/2 205/295/2
f 203/291/4 155/292/4 204/293/4
f 198/284/4 139/297/4 189/298/4
f 135/299/3 196/300/3 191/274/3
f 206/301/2 192/302/2 193/277/2
f 207/303/1 201/304/1 188/271/1
f 176/305/53 208/306/54 148/307/30
f 71/308/5 139/309/23 77/310/55
f 73/311/5 190/312/5 206/313/5
f 145/206/6 209/314/6 186/315/6
f 75/191/5 190/316/5 72/317/5
f 71/308/5 199/318/5 207/319/5
f 181/320/6 210/321/39 142/201/6
f 87/322/5 206/313/5 165/232/5
f 138/323/56 211/324/57 151/215/32
f 85/225/58 134/325/58 74/326/58
f 184/327/59 157/328/60 208/306/61
f 84/329/62 140/199/24 154/330/63
f 186/315/6 212/331/6 162/229/6
f 83/214/5 199/332/5 70/333/5
f 160/226/6 210/334/39 168/335/6
f 156/220/6 163/336/39 213/337/6
f 91/338/64 167/234/64 92/339/64
f 115/340/65 172/240/65 13/341/65
f 187/259/66 102/342/66 103/343/66
f 214/344/67 185/257/68 14/345/69
f 183/255/70 31/346/71 21/347/72
f 106/348/66 182/253/66 105/349/66
f 179/250/66 103/343/66 109/350/66
f 14/345/69 178/248/69 101/351/69
f 177/247/69 21/347/72 42/352/73
f 105/349/66 180/251/66 113/353/66
f 113/353/66 179/250/66 109/350/66
f 101/351/69 177/247/69 42/352/73
f 174/243/71 91/354/71 31/346/71
f 172/240/65 214/355/65 13/341/65
f 170/237/66 115/356/66 102/342/66
f 167/234/64 106/357/64 92/339/64
f 188/271/1 215/358/1 216/359/1
f 193/277/2 217/360/2 218/361/2
f 191/274/3 219/362/3 220/363/3
f 221/364/4 189/298/4 222/365/4
f 223/366/4 204/293/4 224/367/4
f 205/295/2 225/368/2 226/369/2
f 200/286/2 226/369/2 227/370/2
f 204/293/4 228/371/4 224/367/4
f 195/280/4 223/366/4 229/372/4
f 202/289/2 230/373/2 225/368/2
f 201/287/2 227/370/2 215/374/2
f 228/371/4 198/284/4 221/364/4
f 196/281/4 229/372/4 219/375/4
f 194/278/2 218/361/2 230/373/2
f 192/275/3 220/363/3 217/376/3
f 189/272/1 216/359/1 222/377/1
f 222/377/1 161/378/1 152/379/1
f 217/376/3 213/380/3 163/381/3
f 230/373/2 212/382/2 209/383/2
f 219/375/4 208/384/4 157/385/4
f 137/386/4 221/364/4 211/387/4
f 215/374/2 142/388/2 210/389/2
f 225/368/2 209/383/2 146/390/2
f 229/372/4 148/391/4 208/384/4
f 224/367/4 137/386/4 149/392/4
f 227/370/2 143/393/2 142/388/2
f 226/369/2 146/390/2 143/393/2
f 148/391/4 224/367/4 149/392/4
f 211/387/4 222/365/4 152/394/4
f 220/363/3 157/395/3 213/380/3
f 218/361/2 163/396/2 212/382/2
f 216/359/1 210/397/1 161/378/1
f 1/1/1 93/398/1 2/2/1
f 4/4/2 104/399/2 5/5/2
f 7/7/3 99/400/3 8/8/3
f 10/10/4 116/401/4 11/11/4
f 13/13/5 214/402/5 14/14/5
f 1/16/6 116/403/6 10/17/6
f 17/19/6 24/36/6 18/20/6
f 20/22/5 42/45/5 21/23/5
f 23/25/4 18/404/4 24/26/4
f 26/28/2 43/46/2 27/29/2
f 29/31/2 26/28/2 28/30/2
f 22/24/5 21/23/5 31/33/5
f 33/35/6 49/405/6 24/36/6
f 24/26/4 49/406/4 34/37/4
f 35/38/3 4/109/3 36/39/3
f 38/41/7 60/175/7 39/42/7
f 41/44/5 101/121/5 42/45/5
f 43/46/2 95/122/2 44/47/2
f 45/48/2 96/112/2 46/49/2
f 16/51/1 114/145/1 48/52/1
f 49/54/3 33/128/3 50/55/3
f 52/57/2 55/60/2 53/58/2
f 55/60/2 45/48/2 47/50/2
f 56/61/8 123/159/8 57/62/8
f 38/64/4 107/187/4 59/65/4
f 61/67/3 133/188/3 62/68/3
f 64/70/2 108/189/2 65/71/2
f 67/73/1 90/190/1 68/74/1
f 69/75/1 68/74/1 70/76/1
f 66/72/2 65/71/2 72/78/2
f 63/69/3 62/68/3 74/80/3
f 76/82/4 60/66/4 59/65/4
f 78/84/4 86/92/4 79/85/4
f 53/58/2 47/50/2 81/87/2
f 54/59/2 53/58/2 82/88/2
f 79/85/4 88/96/4 84/90/4
f 85/91/4 98/114/4 86/92/4
f 47/50/2 46/49/2 87/93/2
f 68/94/2 54/59/2 83/89/2
f 88/96/4 60/66/4 76/82/4
f 86/97/9 121/157/9 89/98/9
f 90/100/2 52/57/2 54/59/2
f 32/34/5 31/33/5 91/101/5
f 93/103/2 29/31/2 30/32/2
f 18/105/1 130/407/1 94/106/1
f 95/108/10 126/162/10 36/39/10
f 62/110/4 98/114/4 85/91/4
f 46/49/2 66/72/2 73/79/2
f 96/112/2 64/70/2 66/72/2
f 62/110/4 133/183/4 97/113/4
f 35/115/6 111/408/6 99/116/6
f 99/118/4 111/409/4 100/119/4
f 15/15/5 14/14/5 101/121/5
f 95/122/2 4/4/2 6/6/2
f 102/123/5 15/15/5 41/44/5
f 4/125/6 35/115/6 7/117/6
f 17/127/11 127/163/11 50/55/11
f 105/129/5 32/34/5 92/102/5
f 65/131/3 63/69/3 75/81/3
f 59/133/1 69/75/1 71/77/1
f 107/135/1 67/73/1 69/75/1
f 108/136/3 61/67/3 63/69/3
f 103/124/5 41/44/5 20/22/5
f 12/138/1 38/41/1 40/43/1
f 111/410/3 117/411/3 112/412/3
f 113/143/5 22/24/5 32/34/5
f 109/137/5 20/22/5 22/24/5
f 10/144/1 132/413/1 114/145/1
f 93/146/6 1/16/6 16/18/6
f 115/148/5 13/13/5 15/15/5
f 104/149/3 7/7/3 9/9/3
f 116/151/1 1/1/1 3/3/1
f 117/153/12 130/407/12 118/154/12
f 94/106/13 130/407/13 117/153/13
f 119/155/4 131/179/4 120/156/4
f 57/62/4 123/159/4 122/158/4
f 121/157/4 120/156/4 57/62/4
f 123/159/4 40/43/4 39/42/4
f 114/145/13 132/413/13 51/56/13
f 51/56/12 132/413/12 110/139/12
f 48/52/6 114/145/6 50/55/6
f 126/162/6 94/106/6 37/40/6
f 125/161/6 50/55/6 127/163/6
f 128/164/6 127/163/6 94/106/6
f 26/165/10 125/161/10 128/164/10
f 19/107/11 94/106/11 127/163/11
f 43/166/10 128/164/10 126/162/10
f 49/414/3 51/415/3 124/416/3
f 88/169/14 79/99/14 89/98/14
f 129/170/15 58/63/15 57/62/15
f 97/171/16 131/179/16 119/155/16
f 23/173/1 129/170/1 120/156/1
f 29/53/10 48/52/10 125/161/10
f 98/172/17 119/155/17 121/157/17
f 111/174/3 35/38/3 37/40/3
f 60/175/18 88/169/18 122/158/18
f 18/105/1 23/173/1 118/154/1
f 34/168/3 124/160/3 123/159/3
f 124/160/4 110/139/4 40/43/4
f 112/141/4 118/154/4 120/156/4
f 11/152/1 3/3/1 67/73/1
f 5/150/3 9/9/3 61/67/3
f 100/142/3 112/141/3 131/179/3
f 10/417/1 12/138/1 110/139/1
f 44/47/2 6/6/2 64/70/2
f 8/120/4 100/119/4 97/113/4
f 2/104/2 30/32/2 52/57/2
f 27/29/2 44/47/2 96/112/2
f 25/27/4 34/37/4 56/184/4
f 30/32/2 28/30/2 55/60/2
f 28/30/2 27/29/2 45/48/2
f 129/186/4 23/25/4 25/27/4
f 12/12/4 11/11/4 107/187/4
f 9/9/3 8/8/3 133/188/3
f 6/6/2 5/5/2 108/189/2
f 3/3/1 2/2/1 90/190/1
f 75/191/5 74/418/5 134/192/5
f 136/194/19 149/212/74 137/195/20
f 76/197/22 77/419/55 139/198/23
f 141/200/25 181/320/6 142/201/6
f 80/203/26 155/219/75 144/204/27
f 145/206/6 141/200/25 143/202/6
f 81/208/5 166/233/5 147/209/5
f 136/194/29 176/420/53 148/211/30
f 82/210/5 147/209/5 150/213/5
f 151/215/32 211/324/57 152/216/33
f 80/203/76 84/421/76 154/218/76
f 156/220/6 213/337/6 157/221/6
f 78/223/36 144/422/77 159/224/37
f 160/226/6 153/423/34 152/227/33
f 162/229/6 212/331/6 163/230/39
f 81/208/5 87/322/5 165/232/5
f 167/234/40 160/424/40 168/235/40
f 170/237/41 162/265/41 164/238/41
f 172/240/42 156/425/42 158/241/42
f 174/243/43 151/262/50 153/244/43
f 176/246/44 136/426/78 177/247/45
f 141/249/41 145/427/41 179/250/41
f 181/252/41 141/249/41 180/251/41
f 177/247/45 136/426/78 138/254/46
f 184/256/48 176/246/44 178/248/44
f 179/250/41 145/427/41 186/258/41
f 168/260/41 181/252/41 182/253/41
f 183/255/47 138/254/46 151/262/50
f 158/263/51 184/256/48 185/257/49
f 187/259/41 186/258/41 162/265/41
f 164/266/42 156/425/42 172/240/42
f 153/268/40 160/424/40 167/234/40
f 139/270/1 207/303/1 188/271/1
f 190/273/3 135/299/3 191/274/3
f 165/276/2 206/301/2 193/277/2
f 134/279/4 159/290/4 195/280/4
f 197/282/4 154/428/4 140/283/4
f 199/285/2 150/294/2 200/286/2
f 166/288/2 165/276/2 194/278/2
f 159/290/4 144/429/4 203/291/4
f 155/292/4 154/428/4 197/282/4
f 150/294/2 147/296/2 205/295/2
f 147/296/2 166/288/2 202/289/2
f 203/291/4 144/429/4 155/292/4
f 198/284/4 140/283/4 139/297/4
f 135/299/3 134/430/3 196/300/3
f 206/301/2 190/431/2 192/302/2
f 207/303/1 199/432/1 201/304/1
f 176/305/53 184/327/79 208/306/54
f 71/308/5 207/319/5 139/309/23
f 73/311/5 72/433/5 190/312/5
f 145/206/6 146/207/6 209/314/6
f 75/191/5 135/193/5 190/316/5
f 71/308/5 70/434/5 199/318/5
f 181/320/6 168/435/6 210/321/39
f 87/322/5 73/311/5 206/313/5
f 138/323/56 137/436/80 211/324/57
f 85/225/81 159/224/81 134/325/81
f 184/327/59 158/437/82 157/328/60
f 84/329/62 76/197/22 140/199/24
f 186/315/6 209/314/6 212/331/6
f 83/214/5 150/213/5 199/332/5
f 160/226/6 161/228/6 210/334/39
f 156/220/6 164/438/6 163/336/39
f 91/338/64 175/269/64 167/234/64
f 115/340/65 171/267/65 172/240/65
f 187/259/66 170/237/66 102/342/66
f 214/344/67 173/264/83 185/257/68
f 183/255/70 174/243/71 31/346/71
f 106/348/66 169/261/66 182/253/66
f 179/250/66 187/259/66 103/343/66
f 14/345/69 185/257/68 178/248/69
f 177/247/69 183/255/70 21/347/72
f 105/349/66 182/253/66 180/251/66
f 113/353/66 180/251/66 179/250/66
f 101/351/69 178/248/69 177/247/69
f 174/243/71 175/245/71 91/354/71
f 172/240/65 173/242/65 214/355/65
f 170/237/66 171/239/66 115/356/66
f 167/234/64 169/236/64 106/357/64
f 188/271/1 201/304/1 215/358/1
f 193/277/2 192/302/2 217/360/2
f 191/274/3 196/300/3 219/362/3
f 221/364/4 198/284/4 189/298/4
f 223/366/4 203/291/4 204/293/4
f 205/295/2 202/289/2 225/368/2
f 200/286/2 205/295/2 226/369/2
f 204/293/4 197/282/4 228/371/4
f 195/280/4 203/291/4 223/366/4
f 202/289/2 194/278/2 230/373/2
f 201/287/2 200/286/2 227/370/2
f 228/371/4 197/282/4 198/284/4
f 196/281/4 195/280/4 229/372/4
f 194/278/2 193/277/2 218/361/2
f 192/275/3 191/274/3 220/363/3
f 189/272/1 188/271/1 216/359/1
f 222/377/1 216/359/1 161/378/1
f 217/376/3 220/363/3 213/380/3
f 230/373/2 218/361/2 212/382/2
f 219/375/4 229/372/4 208/384/4
f 137/386/4 228/371/4 221/364/4
f 215/374/2 227/370/2 142/388/2
f 225/368/2 230/373/2 209/383/2
f 229/372/4 223/366/4 148/391/4
f 224/367/4 228/371/4 137/386/4
f 227/370/2 226/369/2 143/393/2
f 226/369/2 225/368/2 146/390/2
f 148/391/4 223/366/4 224/367/4
f 211/387/4 221/364/4 222/365/4
f 220/363/3 219/362/3 157/395/3
f 218/361/2 217/360/2 163/396/2
f 216/359/1 215/358/1 210/397/1
o legLeft
v -0.023189 1.588749 0.296850
v -0.023189 1.408749 0.296850
v -0.023189 1.408749 -0.275176
v 0.259310 1.283749 -0.275176
v 0.541810 1.158749 -0.275176
v 0.506810 1.588749 -0.275176
v 0.541810 1.158749 0.296850
v 0.241810 1.588749 0.296850
v 0.259310 1.283749 0.296850
v 0.556810 0.733749 -0.275176
v 0.241810 0.883749 -0.275176
v 0.241810 0.883749 0.296850
v -0.023189 1.588749 -0.275176
v 0.241810 1.588749 -0.275176
v -0.023189 1.233749 0.296850
v 0.556810 0.733749 0.296850
v -0.023189 1.233749 -0.275176
v 0.506810 1.588749 0.296850
v 0.506811 1.583749 0.290837
v 0.506811 -0.016251 0.290837
v 0.506811 -0.016251 -0.269163
v 0.506811 1.583749 -0.269163
v -0.018190 -0.016251 -0.269163
v -0.018190 1.583749 -0.269163
v -0.018190 -0.016251 0.290837
v -0.018190 1.583749 0.290837
vt 0.896601 0.964178
vt 0.756244 0.964178
vt 0.756244 0.518135
vt 0.796560 0.718339
vt 0.678371 0.652824
vt 0.837576 0.551487
vt 0.967252 0.887809
vt 0.744504 0.887809
vt 0.744504 0.592465
vt 0.911146 0.831450
vt 0.798219 0.755718
vt 0.918470 0.689059
vt 0.572528 0.965938
vt 0.572528 0.771224
vt 0.891772 0.771224
vt 0.561138 0.528464
vt 0.753644 0.528464
vt 0.753644 0.944007
vt 0.660985 0.642043
vt 0.856373 0.642043
vt 0.524935 0.887809
vt 0.524935 0.592465
vt 0.661681 0.830064
vt 0.526191 0.759815
vt 0.619786 0.964178
vt 0.619786 0.518135
vt 0.853718 0.830064
vt 0.677967 0.822377
vt 0.523131 0.713518
vt 0.946151 0.528464
vt 0.946151 0.944007
vt 0.572528 0.526219
vt 0.891772 0.526219
vt 0.839951 0.925482
vt 0.914749 0.783854
vt 0.907551 0.643906
vt 0.896600 0.518135
vt 0.967252 0.592465
vt 0.982341 0.737418
vt 0.891772 0.965938
vt 0.561138 0.944007
vt 0.977524 0.736325
vt 0.470272 0.805172
vt 0.041633 0.805172
vt 0.041633 0.655148
vt 0.488490 0.793356
vt 0.016813 0.793356
vt 0.016813 0.638586
vt 0.481573 0.838274
vt 0.022365 0.838274
vt 0.022365 0.677551
vt 0.464356 0.814886
vt 0.032951 0.814886
vt 0.032951 0.673331
vt 0.101297 0.610699
vt 0.373590 0.610699
vt 0.373590 0.901145
vt 0.204536 0.938530
vt 0.204536 0.810229
vt 0.076235 0.810229
vt 0.470272 0.655148
vt 0.488490 0.638586
vt 0.481573 0.677551
vt 0.464356 0.673331
vt 0.101297 0.901145
vt 0.076235 0.938530
vn 1.0000 -0.0000 0.0000
vn -0.0000 -0.0000 1.0000
vn -0.9967 -0.0811 0.0000
vn 0.0000 0.0000 -1.0000
vn 0.4299 0.9029 0.0000
vn 0.0000 -1.0000 0.0000
vn -0.9994 -0.0353 -0.0000
vn 0.7973 0.6036 0.0000
vn -1.0000 -0.0000 0.0000
vn 0.0000 1.0000 0.0000
s 1
f 231/439/84 232/440/84 233/441/84
f 234/442/85 235/443/85 236/444/85
f 236/445/86 235/446/86 237/447/86
f 238/448/87 239/449/87 232/450/87
f 240/451/88 241/452/88 242/453/88
f 243/454/89 244/455/89 238/456/89
f 239/449/87 242/457/87 245/458/87
f 235/446/90 240/459/90 246/460/90
f 241/461/85 240/462/85 235/443/85
f 232/440/84 245/463/84 247/464/84
f 247/465/85 241/461/85 234/442/85
f 237/466/87 246/467/87 242/457/87
f 244/455/89 236/468/89 248/469/89
f 241/452/91 247/470/91 245/471/91
f 248/472/87 237/466/87 239/449/87
f 233/473/85 234/442/85 244/474/85
f 231/439/84 233/441/84 243/475/84
f 234/442/85 236/444/85 244/474/85
f 236/445/86 237/447/86 248/476/86
f 238/448/87 232/450/87 231/477/87
f 240/451/88 242/453/88 246/478/88
f 243/454/89 238/456/89 231/479/89
f 239/449/87 245/458/87 232/450/87
f 235/446/90 246/460/90 237/447/90
f 241/461/85 235/443/85 234/442/85
f 232/440/84 247/464/84 233/441/84
f 247/465/85 234/442/85 233/473/85
f 237/466/87 242/457/87 239/449/87
f 244/455/89 248/469/89 238/456/89
f 241/452/91 245/471/91 242/453/91
f 248/472/87 239/449/87 238/448/87
f 233/473/85 244/474/85 243/480/85
f 249/481/84 250/482/84 251/483/84
f 252/484/87 251/485/87 253/486/87
f 254/487/92 253/488/92 255/489/92
f 256/490/85 255/491/85 250/492/85
f 253/493/89 251/494/89 250/495/89
f 252/496/93 254/497/93 256/498/93
f 249/481/84 251/483/84 252/499/84
f 252/484/87 253/486/87 254/500/87
f 254/487/92 255/489/92 256/501/92
f 256/490/85 250/492/85 249/502/85
f 253/493/89 250/495/89 255/503/89
f 252/496/93 256/498/93 249/504/93
o legRight
v -0.513190 1.588749 0.296850
v -0.563190 1.158749 -0.275176
v -0.563190 1.158749 0.296850
v -0.248190 1.588749 -0.275176
v 0.016810 1.408749 -0.275176
v -0.273190 1.283749 -0.275176
v 0.016810 1.588749 -0.275176
v 0.016810 1.408749 0.296850
v -0.273190 1.283749 0.296850
v 0.016810 1.233749 -0.275176
v -0.248190 0.883749 0.296850
v -0.248190 0.883749 -0.275176
v -0.513190 1.588749 -0.275176
v -0.248190 1.588749 0.296850
v -0.563190 0.733749 0.296850
v 0.016810 1.233749 0.296850
v -0.563190 0.733749 -0.275176
v 0.016810 1.588749 0.296850
v -0.513190 1.583749 0.290837
v -0.513190 -0.016251 -0.269163
v -0.513190 -0.016251 0.290837
v -0.513190 1.583749 -0.269163
v 0.011810 -0.016251 -0.269163
v 0.011810 1.583749 -0.269163
v 0.011810 -0.016251 0.290837
v 0.011810 1.583749 0.290837
vt 0.591166 0.516116
vt 0.872405 0.728953
vt 0.591166 0.728953
vt 0.908521 0.759320
vt 0.836841 0.864849
vt 0.787063 0.749364
vt 0.863726 0.535040
vt 0.738276 0.933710
vt 0.738276 0.535040
vt 0.810926 0.724873
vt 0.852250 0.882723
vt 0.695429 0.790355
vt 0.919789 0.606950
vt 0.730581 0.853489
vt 0.730581 0.606950
vt 0.920806 0.556761
vt 0.756241 0.911989
vt 0.756241 0.556761
vt 0.683195 0.614979
vt 0.552974 0.682495
vt 0.616310 0.933710
vt 0.616310 0.535040
vt 0.767152 0.864848
vt 0.627775 0.759320
vt 0.872405 0.937907
vt 0.591166 0.937907
vt 0.737286 0.633880
vt 0.568042 0.633880
vt 0.867764 0.614979
vt 0.591677 0.911989
vt 0.591677 0.556761
vt 0.580211 0.853489
vt 0.580211 0.606950
vt 0.926422 0.659391
vt 0.919503 0.793898
vt 0.908521 0.653791
vt 0.872405 0.516116
vt 0.908521 0.864849
vt 0.863726 0.933710
vt 0.919789 0.853489
vt 0.920806 0.911989
vt 0.986756 0.705073
vt 0.493136 0.658002
vt 0.010801 0.826819
vt 0.010801 0.658002
vt 0.483442 0.620035
vt 0.024371 0.770667
vt 0.024371 0.620035
vt 0.478299 0.664079
vt 0.013888 0.826623
vt 0.013888 0.664079
vt 0.490480 0.684225
vt 0.012990 0.840901
vt 0.012990 0.684225
vt 0.414731 0.571062
vt 0.088726 0.918800
vt 0.088726 0.571062
vt 0.192029 0.941600
vt 0.058400 0.807971
vt 0.192029 0.807971
vt 0.493136 0.826819
vt 0.483442 0.770667
vt 0.478299 0.826623
vt 0.490480 0.840901
vt 0.414731 0.918800
vt 0.058400 0.941600
vn -0.9933 0.1155 0.0000
vn 0.0000 0.0000 -1.0000
vn 1.0000 -0.0000 0.0000
vn -0.0000 -0.0000 1.0000
vn 0.7973 -0.6036 -0.0000
vn 0.0000 1.0000 0.0000
vn -1.0000 0.0000 0.0000
vn 0.4299 -0.9029 -0.0000
vn 0.0000 -1.0000 -0.0000
s 1
f 257/505/94 258/506/94 259/507/94
f 260/508/95 261/509/95 262/510/95
f 263/511/96 264/512/96 261/513/96
f 265/514/97 257/515/97 259/516/97
f 266/517/98 267/518/98 268/519/98
f 269/520/99 270/521/99 260/522/99
f 267/523/97 259/516/97 271/524/97
f 261/513/96 272/525/96 266/526/96
f 262/510/95 266/527/95 268/528/95
f 259/507/100 273/529/100 271/530/100
f 258/531/95 268/528/95 273/532/95
f 272/533/97 265/514/97 267/523/97
f 260/522/99 274/534/99 263/535/99
f 268/519/101 271/536/101 273/537/101
f 264/538/97 270/539/97 265/514/97
f 269/540/95 262/510/95 258/531/95
f 257/505/94 269/541/94 258/506/94
f 260/508/95 263/542/95 261/509/95
f 263/511/96 274/543/96 264/512/96
f 265/514/97 270/539/97 257/515/97
f 266/517/98 272/544/98 267/518/98
f 269/520/99 257/545/99 270/521/99
f 267/523/97 265/514/97 259/516/97
f 261/513/96 264/512/96 272/525/96
f 262/510/95 261/509/95 266/527/95
f 259/507/100 258/506/100 273/529/100
f 258/531/95 262/510/95 268/528/95
f 272/533/97 264/538/97 265/514/97
f 260/522/99 270/521/99 274/534/99
f 268/519/101 267/518/101 271/536/101
f 264/538/97 274/546/97 270/539/97
f 269/540/95 260/508/95 262/510/95
f 275/547/100 276/548/100 277/549/100
f 278/550/95 279/551/95 276/552/95
f 280/553/96 281/554/96 279/555/96
f 282/556/97 277/557/97 281/558/97
f 279/559/102 277/560/102 276/561/102
f 278/562/99 282/563/99 280/564/99
f 275/547/100 278/565/100 276/548/100
f 278/550/95 280/566/95 279/551/95
f 280/553/96 282/567/96 281/554/96
f 282/556/97 275/568/97 277/557/97
f 279/559/102 281/569/102 277/560/102
f 278/562/99 275/570/99 282/563/99
o bodyHandRight
v -1.003190 2.992874 0.293203
v -1.028190 2.624124 -0.271529
v -1.028190 2.624124 0.293203
v -1.003190 2.992874 -0.271529
v -0.468190 2.624124 -0.271529
v -0.468190 2.992874 -0.271529
v -0.468190 2.624124 0.293203
v -0.468190 2.992874 0.293203
v -0.468190 1.517874 0.293203
v -1.028190 2.255374 0.293203
v -1.078190 1.517874 0.293203
v -0.468190 2.255374 -0.271529
v -0.468190 1.517874 -0.271529
v -1.028190 2.255374 -0.271529
v -1.078190 1.517874 -0.271529
v -0.468190 2.255374 0.293203
vt 0.993166 0.650477
vt 0.873468 0.833373
vt 0.873467 0.650477
vt 0.995389 0.642617
vt 0.873671 0.819211
vt 0.873671 0.634365
vt 0.989933 0.651698
vt 0.871106 0.833678
vt 0.871106 0.651698
vt 0.873235 0.645950
vt 0.994052 0.821237
vt 0.873235 0.829428
vt 0.888479 0.894745
vt 0.595182 0.616889
vt 0.888479 0.616889
vt 0.510783 0.645950
vt 0.752418 0.829428
vt 0.510783 0.845810
vt 0.752279 0.651698
vt 0.514626 0.833678
vt 0.514626 0.651698
vt 0.751953 0.634365
vt 0.508517 0.819211
vt 0.508517 0.617861
vt 0.754043 0.650477
vt 0.514647 0.833373
vt 0.514647 0.650477
vt 0.752417 0.645950
vt 0.752279 0.833678
vt 0.751953 0.819211
vt 0.754043 0.833373
vt 0.993166 0.833373
vt 0.995389 0.819211
vt 0.989933 0.833678
vt 0.994052 0.645950
vt 0.595182 0.894745
vn -0.9977 0.0676 0.0000
vn 0.0000 0.0000 -1.0000
vn 1.0000 0.0000 0.0000
vn 0.0000 -0.0000 1.0000
vn 0.0000 1.0000 0.0000
vn -1.0000 -0.0000 0.0000
s 1
f 283/571/103 284/572/103 285/573/103
f 286/574/104 287/575/104 284/576/104
f 288/577/105 289/578/105 287/579/105
f 289/580/106 283/581/106 285/582/106
f 286/583/107 290/584/107 288/585/107
f 291/586/106 292/587/106 293/588/106
f 294/589/105 291/590/105 295/591/105
f 296/592/104 295/593/104 297/594/104
f 292/595/103 297/596/103 293/597/103
f 289/580/106 292/587/106 298/598/106
f 287/579/105 298/599/105 294/589/105
f 284/576/104 294/600/104 296/592/104
f 285/573/108 296/601/108 292/595/108
f 283/571/103 286/602/103 284/572/103
f 286/574/104 288/603/104 287/575/104
f 288/577/105 290/604/105 289/578/105
f 289/580/106 290/605/106 283/581/106
f 286/583/107 283/606/107 290/584/107
f 291/586/106 298/598/106 292/587/106
f 294/589/105 298/599/105 291/590/105
f 296/592/104 294/600/104 295/593/104
f 292/595/103 296/601/103 297/596/103
f 289/580/106 285/582/106 292/587/106
f 287/579/105 289/578/105 298/599/105
f 284/576/104 287/575/104 294/600/104
f 285/573/108 284/572/108 296/601/108
o bodyHandLeft
v 0.996811 2.992874 -0.269163
v 1.021811 2.624124 0.290837
v 1.021811 2.624124 -0.269163
v 0.996811 2.992874 0.290837
v 0.461810 2.624124 0.290837
v 0.461810 2.992874 0.290837
v 0.461810 2.624124 -0.269163
v 0.461810 2.992874 -0.269163
v 0.461810 1.517874 -0.269163
v 1.021811 2.255374 -0.269163
v 1.071810 1.517874 -0.269163
v 0.461810 2.255374 0.290837
v 0.461810 1.517874 0.290837
v 1.021811 2.255374 0.290837
v 1.071810 1.517874 0.290837
v 0.461810 2.255374 -0.269163
vt 0.996134 0.638920
vt 0.873935 0.824072
vt 0.873935 0.638920
vt 0.989251 0.643083
vt 0.873052 0.811670
vt 0.873052 0.635205
vt 0.987701 0.651218
vt 0.869351 0.830951
vt 0.869351 0.651218
vt 0.874299 0.650200
vt 0.994271 0.824390
vt 0.874236 0.832487
vt 0.596892 0.601141
vt 0.905108 0.895599
vt 0.596891 0.895599
vt 0.514201 0.650075
vt 0.754203 0.832445
vt 0.514133 0.848638
vt 0.751000 0.651218
vt 0.514298 0.830951
vt 0.514298 0.651218
vt 0.756854 0.635205
vt 0.524457 0.811670
vt 0.524457 0.619450
vt 0.752015 0.638920
vt 0.507617 0.824072
vt 0.507617 0.638920
vt 0.754266 0.650158
vt 0.751000 0.830951
vt 0.756854 0.811670
vt 0.752015 0.824072
vt 0.996135 0.824072
vt 0.989251 0.811670
vt 0.987701 0.830951
vt 0.994331 0.650241
vt 0.905108 0.601141
vn 0.9977 0.0676 0.0000
vn 0.0000 -0.0000 1.0000
vn -1.0000 -0.0000 0.0000
vn 0.0000 0.0000 -1.0000
vn 0.0000 1.0000 0.0000
vn 1.0000 0.0000 0.0000
s 1
f 299/607/109 300/608/109 301/609/109
f 302/610/110 303/611/110 300/612/110
f 304/613/111 305/614/111 303/615/111
f 305/616/112 299/617/112 301/618/112
f 302/619/113 306/620/113 304/621/113
f 307/622/112 308/623/112 309/624/112
f 310/625/111 307/626/111 311/627/111
f 312/628/110 311/629/110 313/630/110
f 308/631/109 313/632/109 309/633/109
f 305/616/112 308/623/112 314/634/112
f 303/615/111 314/635/111 310/625/111
f 300/612/110 310/636/110 312/628/110
f 301/609/114 312/637/114 308/631/114
f 299/607/109 302/638/109 300/608/109
f 302/610/110 304/639/110 303/611/110
f 304/613/111 306/640/111 305/614/111
f 305/616/112 306/641/112 299/617/112
f 302/619/113 299/642/113 306/620/113
f 307/622/112 314/634/112 308/623/112
f 310/625/111 314/635/111 307/626/111
f 312/628/110 310/636/110 311/629/110
f 308/631/109 312/637/109 313/632/109
f 305/616/112 301/618/112 308/623/112
f 303/615/111 305/614/111 314/635/111
f 300/612/110 303/611/110 310/636/110
f 301/609/114 300/608/114 312/637/114
